<?xml version="1.0" standalone="no"?>
<!DOCTYPE svg PUBLIC "-//W3C//DTD SVG 20010904//EN"
 "http://www.w3.org/TR/2001/REC-SVG-20010904/DTD/svg10.dtd">
<svg version="1.0" xmlns="http://www.w3.org/2000/svg"
 width="1024.000000pt" height="1024.000000pt" viewBox="0 0 1024.000000 1024.000000"
 preserveAspectRatio="xMidYMid meet">

<g transform="translate(0.000000,1024.000000) scale(0.100000,-0.100000)"
fill="#000000" stroke="none">
<path d="M6555 6029 c-169 -26 -345 -130 -455 -269 l-30 -38 36 -21 37 -22 62
64 c117 121 258 186 420 194 145 8 261 -26 387 -113 l48 -33 -22 -15 c-31 -22
-37 -21 -120 24 -103 55 -181 73 -293 68 -105 -6 -178 -29 -260 -84 -66 -43
-167 -133 -161 -142 2 -4 20 -15 40 -26 l35 -19 58 53 c32 29 92 69 133 89 72
34 80 36 175 35 116 -1 187 -22 272 -80 29 -20 59 -34 67 -32 25 5 186 122
186 135 0 21 -120 121 -189 157 -124 65 -296 95 -426 75z"/>
<path d="M1340 5763 c-57 -137 -153 -374 -216 -528 -92 -230 -170 -420 -201
-492 -6 -15 -15 -14 147 -16 l125 -2 51 130 52 130 282 0 282 0 52 -130 52
-130 137 -3 c75 -1 137 -1 137 1 0 3 -54 139 -120 303 -66 165 -182 453 -257
642 l-137 342 -142 0 -142 0 -102 -247z m264 -95 c22 -65 107 -288 145 -385
24 -60 27 -73 14 -77 -22 -9 -356 -7 -369 2 -8 5 18 85 84 260 52 138 98 252
101 252 3 0 15 -24 25 -52z"/>
<path d="M7155 5663 l-80 -55 5 -261 5 -262 94 -54 c108 -63 105 -64 140 43
46 140 52 326 16 461 -20 73 -74 185 -89 184 -6 0 -47 -25 -91 -56z m88 -139
c33 -108 32 -317 -3 -408 l-10 -27 -30 23 -30 22 0 210 c0 182 2 212 17 228
25 27 36 18 56 -48z"/>
<path d="M3205 5641 c-83 -24 -114 -42 -183 -105 -131 -122 -181 -309 -132
-499 10 -43 31 -97 45 -122 54 -91 176 -179 286 -204 110 -26 278 -5 371 46
82 45 176 156 202 241 7 22 7 22 -110 22 l-117 0 -35 -41 c-47 -55 -101 -79
-178 -79 -115 0 -214 78 -231 183 l-6 37 347 0 346 0 0 65 c0 237 -136 419
-348 464 -76 16 -187 12 -257 -8z m208 -176 c21 -3 53 -20 74 -38 34 -30 72
-96 73 -124 0 -10 -50 -13 -215 -13 -237 0 -232 -2 -199 63 40 80 132 133 209
121 11 -1 37 -6 58 -9z"/>
<path d="M4295 5635 c-42 -17 -75 -40 -107 -75 l-48 -51 0 64 0 65 -120 -2
-120 -1 0 -455 0 -455 119 -1 120 -2 3 287 c3 249 5 291 21 326 37 82 92 118
182 119 70 1 118 -23 150 -76 19 -31 20 -54 23 -345 l3 -313 120 0 119 0 0
328 c0 364 -6 410 -62 493 -56 83 -137 119 -267 119 -57 0 -91 -7 -136 -25z"/>
<path d="M5170 5644 c-154 -41 -276 -172 -315 -336 -43 -182 6 -378 122 -490
108 -105 280 -145 431 -99 52 15 83 33 120 66 l51 46 3 -52 3 -52 115 -1 115
-1 3 456 2 456 -117 -1 -118 -1 -3 -48 -3 -48 -46 41 c-83 73 -232 99 -363 64z
m254 -206 c59 -18 129 -91 151 -158 22 -67 16 -179 -13 -236 -62 -121 -217
-170 -340 -108 -88 44 -132 124 -132 240 0 194 154 315 334 262z"/>
<path d="M7853 5642 c-62 -22 -129 -67 -152 -101 -16 -25 -16 -25 -21 34 l-5
60 -117 1 -118 0 0 -458 0 -457 119 0 120 1 3 287 c3 249 5 291 21 326 27 59
64 93 124 112 45 14 61 15 99 5 59 -16 91 -38 112 -76 15 -27 18 -74 22 -341
l5 -310 118 -2 118 -2 -3 362 c-3 343 -4 364 -24 407 -52 112 -132 161 -277
167 -72 3 -103 0 -144 -15z"/>
<path d="M8731 5644 c-217 -58 -360 -277 -336 -514 28 -264 208 -430 468 -430
190 0 350 95 425 250 l31 65 -117 3 -116 3 -38 -44 c-21 -25 -56 -52 -78 -61
-45 -18 -127 -21 -180 -6 -70 19 -134 95 -154 183 l-6 27 350 0 350 0 0 53 c0
286 -193 489 -463 486 -45 0 -106 -7 -136 -15z m246 -197 c37 -20 76 -68 92
-116 6 -19 11 -36 11 -37 0 -2 -99 -4 -221 -4 l-220 0 6 23 c15 48 50 98 88
124 62 43 172 48 244 10z"/>
<path d="M2703 5631 c-64 -22 -114 -59 -145 -108 l-23 -38 -3 76 -3 77 -119
-2 -120 -1 0 -457 0 -457 125 1 125 1 0 232 c0 266 8 307 72 380 47 53 105 75
200 75 l68 0 0 120 0 120 -62 0 c-35 -1 -86 -9 -115 -19z"/>
<path d="M6011 5608 c-5 -13 -16 -39 -24 -60 -54 -128 -45 -365 18 -513 29
-68 28 -68 123 -13 48 27 90 53 95 57 4 4 8 103 8 221 0 165 -2 216 -13 225
-21 20 -171 105 -186 105 -7 0 -16 -10 -21 -22z m127 -305 l2 -178 -30 -19
c-17 -10 -32 -16 -34 -14 -28 40 -44 246 -26 344 7 38 15 73 17 77 3 4 19 -1
36 -12 l32 -20 3 -178z"/>
<path d="M6948 5023 c-86 -93 -217 -168 -311 -179 -91 -11 -209 40 -308 133
l-48 45 -96 -62 c-53 -35 -94 -67 -92 -73 6 -19 92 -113 139 -153 64 -54 150
-100 233 -126 98 -31 260 -31 360 0 89 28 183 82 257 151 56 51 118 129 118
148 0 8 -52 41 -169 107 l-59 34 -24 -25z m75 -85 c15 -7 27 -15 27 -18 0 -13
-108 -114 -158 -147 -207 -137 -431 -114 -638 64 l-54 46 30 19 30 18 56 -45
c119 -97 246 -139 357 -116 92 19 180 65 250 131 34 33 64 59 68 60 3 0 17 -6
32 -12z"/>
</g>
</svg>
