<?xml version="1.0" encoding="UTF-8" standalone="no"?>
<svg width="600" height="400" viewBox="0 0 600 400" xmlns="http://www.w3.org/2000/svg">
  <style>
    .dashboard-bg { fill: #f5f7fa; }
    .panel { fill: white; stroke: #e0e6ed; stroke-width: 1; }
    .header { fill: #0039FF; }
    .chart-bar { fill: #0039FF; }
    .chart-bar-alt { fill: #00C2FF; }
    .chart-line { fill: none; stroke: #0039FF; stroke-width: 2; }
    .text-area { fill: #e0e6ed; }
    .icon { fill: #0039FF; }
  </style>
  
  <!-- Dashboard Background -->
  <rect width="600" height="400" rx="8" class="dashboard-bg" />
  
  <!-- Left Sidebar -->
  <rect x="10" y="10" width="120" height="380" rx="6" class="panel" />
  <rect x="25" y="30" width="90" height="20" rx="4" class="text-area" />
  <rect x="25" y="70" width="90" height="20" rx="4" class="text-area" />
  <rect x="25" y="110" width="90" height="20" rx="4" class="text-area" />
  <rect x="25" y="150" width="90" height="20" rx="4" class="text-area" />
  <rect x="25" y="190" width="90" height="20" rx="4" class="text-area" />
  
  <!-- Main Content Area -->
  <rect x="140" y="10" width="450" height="180" rx="6" class="panel" />
  <rect x="140" y="10" width="450" height="40" rx="6" class="header" />
  
  <!-- Chart Area -->
  <rect x="160" y="70" width="410" height="100" rx="0" fill="transparent" />
  
  <!-- Bar Chart -->
  <rect x="180" y="130" width="20" height="30" class="chart-bar" />
  <rect x="210" y="110" width="20" height="50" class="chart-bar" />
  <rect x="240" y="90" width="20" height="70" class="chart-bar" />
  <rect x="270" y="70" width="20" height="90" class="chart-bar" />
  <rect x="300" y="100" width="20" height="60" class="chart-bar" />
  <rect x="330" y="120" width="20" height="40" class="chart-bar" />
  <rect x="360" y="80" width="20" height="80" class="chart-bar" />
  
  <!-- Line Chart -->
  <polyline points="180,100 210,90 240,110 270,80 300,70 330,90 360,85 390,95 420,75 450,85 480,65 510,80" class="chart-line" />
  
  <!-- Bottom Panels -->
  <rect x="140" y="200" width="220" height="190" rx="6" class="panel" />
  <rect x="370" y="200" width="220" height="190" rx="6" class="panel" />
  
  <!-- Data Table in First Bottom Panel -->
  <rect x="155" y="220" width="190" height="30" rx="4" class="text-area" opacity="0.7" />
  <rect x="155" y="260" width="190" height="30" rx="4" class="text-area" opacity="0.5" />
  <rect x="155" y="300" width="190" height="30" rx="4" class="text-area" opacity="0.7" />
  <rect x="155" y="340" width="190" height="30" rx="4" class="text-area" opacity="0.5" />
  
  <!-- Circular Charts in Second Bottom Panel -->
  <circle cx="430" cy="270" r="50" fill="transparent" stroke="#e0e6ed" stroke-width="10" />
  <circle cx="430" cy="270" r="50" fill="transparent" stroke="#0039FF" stroke-width="10" stroke-dasharray="220 360" stroke-dashoffset="40" />
  
  <circle cx="530" cy="270" r="30" fill="transparent" stroke="#e0e6ed" stroke-width="8" />
  <circle cx="530" cy="270" r="30" fill="transparent" stroke="#00C2FF" stroke-width="8" stroke-dasharray="150 360" stroke-dashoffset="20" />
  
  <rect x="390" y="340" width="180" height="30" rx="4" class="text-area" opacity="0.6" />
</svg>